<svg xmlns="http://www.w3.org/2000/svg" viewBox="0 0 128 128">
  <defs>
    <linearGradient id="bowl-gradient" x1="0%" y1="0%" x2="0%" y2="100%">
      <stop offset="0%" style="stop-color:#ff6b6b;stop-opacity:1" />
      <stop offset="50%" style="stop-color:#ff8787;stop-opacity:1" />
      <stop offset="100%" style="stop-color:#ffa8a8;stop-opacity:1" />
    </linearGradient>
    <linearGradient id="noodle-gradient" x1="0%" y1="0%" x2="0%" y2="100%">
      <stop offset="0%" style="stop-color:#ffd93d;stop-opacity:1" />
      <stop offset="100%" style="stop-color:#ffb627;stop-opacity:1" />
    </linearGradient>
  </defs>

  <!-- 背景圆 -->
  <circle cx="64" cy="64" r="60" fill="#fff5f5"/>

  <!-- 碗 -->
  <path d="M 20 55 Q 20 50 25 50 L 103 50 Q 108 50 108 55 L 100 85 Q 98 95 88 95 L 40 95 Q 30 95 28 85 Z"
        fill="url(#bowl-gradient)" stroke="#d63031" stroke-width="2"/>

  <!-- 碗的高光 -->
  <path d="M 28 52 Q 30 54 35 54 L 90 54 Q 95 54 97 52"
        fill="none" stroke="#fff" stroke-width="2" opacity="0.6"/>

  <!-- 面条 - 左侧 -->
  <path d="M 35 60 Q 32 65 35 70 Q 38 75 35 80"
        fill="none" stroke="url(#noodle-gradient)" stroke-width="4" stroke-linecap="round"/>

  <!-- 面条 - 中间 -->
  <path d="M 50 58 Q 48 68 52 75 Q 54 80 50 85"
        fill="none" stroke="url(#noodle-gradient)" stroke-width="4" stroke-linecap="round"/>

  <!-- 面条 - 右侧 -->
  <path d="M 70 60 Q 75 65 72 72 Q 68 78 72 83"
        fill="none" stroke="url(#noodle-gradient)" stroke-width="4" stroke-linecap="round"/>

  <!-- 筷子 - 左 -->
  <path d="M 45 35 L 48 62"
        fill="none" stroke="#8b4513" stroke-width="3" stroke-linecap="round"/>

  <!-- 筷子 - 右 -->
  <path d="M 55 32 L 58 60"
        fill="none" stroke="#8b4513" stroke-width="3" stroke-linecap="round"/>

  <!-- 热气 -->
  <path d="M 75 42 Q 78 38 75 34"
        fill="none" stroke="#ff6b6b" stroke-width="2" stroke-linecap="round" opacity="0.5"/>
  <path d="M 85 45 Q 88 40 85 35"
        fill="none" stroke="#ff6b6b" stroke-width="2" stroke-linecap="round" opacity="0.5"/>
  <path d="M 95 43 Q 98 39 95 35"
        fill="none" stroke="#ff6b6b" stroke-width="2" stroke-linecap="round" opacity="0.5"/>
</svg>
